<svg width="561" height="92" viewBox="0 0 561 92" fill="none" xmlns="http://www.w3.org/2000/svg">
<path fill-rule="evenodd" clip-rule="evenodd" d="M0 38.8894V77.7786L8.3721 77.7056L16.7442 77.6322L16.8826 53.2078L17.021 28.7834L20.2037 32.8485C25.8544 40.066 37.5864 55.0674 41.8613 60.542C44.1496 63.4724 46.1395 65.8698 46.2835 65.8698C46.4274 65.8698 47.3747 65.4814 48.3888 65.0065C54.9459 61.9369 64.0899 58.2632 67.8763 57.1774L69.4677 56.7211V28.3605V0H61.0278H52.5881L52.5173 24.03L52.4467 48.06L47.6208 41.8121C44.9663 38.3758 36.6308 27.5623 29.0973 17.7821L15.3997 0H7.69984H0V38.8894ZM100.644 18.2769C97.687 18.7397 94.8264 19.6699 91.7471 21.1702C80.6982 26.553 74.7525 38.0121 75.8598 51.7891C76.7244 62.5444 82.4598 71.5628 91.1936 75.9005C97.6804 79.122 106.363 80.1355 113.012 78.4476C115.647 77.7783 119.616 75.7245 122.012 73.7902L124.183 72.0374L124.52 74.2814C124.706 75.5155 124.925 76.8052 125.007 77.1479L125.157 77.7706H131.493H137.828V47.8801V17.9896H131.468H125.108L124.972 18.6124C124.897 18.9547 124.641 20.4121 124.403 21.8508C124.165 23.2897 123.911 24.5265 123.838 24.5996C123.765 24.6726 123.302 24.3513 122.81 23.8855C121.508 22.6539 118.768 20.8652 116.955 20.0637C113.605 18.5822 111.701 18.216 106.831 18.1167C104.319 18.0652 101.535 18.1374 100.644 18.2769ZM141.98 18.1012C141.98 18.2551 144.72 24.2633 156.594 50.1471L166.839 72.4791L162.987 81.5199C160.869 86.4925 159.067 90.6719 158.982 90.8081C158.894 90.9509 162.25 91.0547 166.941 91.0541L175.053 91.053L179.11 81.8517C181.341 76.7911 188.546 60.5075 195.121 45.666C201.695 30.8246 207.139 18.5241 207.217 18.3317C207.329 18.053 205.591 17.9966 198.697 18.055L190.036 18.128L187.309 24.4936C184.216 31.7132 181.272 38.6237 177.53 47.4492L174.955 53.5225L174.292 52.0158C173.928 51.1874 170.463 43.1926 166.592 34.2501L159.554 17.9905L150.767 17.9902C145.934 17.9899 141.98 18.0397 141.98 18.1012ZM229.225 18.404C214.257 21.1173 204.791 32.8682 204.812 48.7104C204.831 62.5104 212.032 73.3548 223.858 77.3906C227.532 78.6441 230.865 79.1796 235.111 79.1984C241.83 79.2283 247.529 77.1509 251.978 73.0507L253.206 71.9181L253.369 72.8378C253.458 73.3438 253.685 74.6293 253.873 75.6949L254.214 77.6322H260.577H266.939L267.009 47.8109L267.079 17.9896H260.623H254.165L253.683 20.8265C252.965 25.0518 253.221 24.8395 250.939 23.1006C247.602 20.5572 244.057 18.9796 240.111 18.2805C237.886 17.8864 231.694 17.9567 229.225 18.404ZM272.348 18.1972C272.355 18.3112 277.143 25.0056 282.988 33.0733L293.615 47.7417L293.117 48.572C292.843 49.0287 288.677 55.6671 283.861 63.3244C279.044 70.9813 275.103 77.364 275.103 77.5085C275.103 77.935 292.958 77.8528 293.307 77.4246C293.462 77.2345 295.604 73.6537 298.068 69.4677C300.532 65.2816 302.631 61.7731 302.733 61.6707C302.835 61.5683 305.388 65.1491 308.408 69.6276L313.898 77.7706H323.007C328.017 77.7706 332.116 77.7069 332.116 77.6289C332.116 77.5511 327.686 70.9384 322.272 62.9338C316.858 54.9293 312.363 48.2106 312.284 48.0033C312.153 47.6623 314.096 44.6256 319.8 36.256C320.89 34.6577 324.113 29.8941 326.964 25.6698L332.148 17.9896L322.93 17.9949L313.712 18.0002L308.315 26.2959C305.346 30.8583 302.856 34.5866 302.779 34.5808C302.703 34.575 299.908 30.8395 296.567 26.2798L290.493 17.9896H281.414C276.421 17.9896 272.341 18.0832 272.348 18.1972ZM110.094 33.0957C113.262 33.7455 115.514 34.9273 117.656 37.065C120.753 40.1543 122.134 43.6988 122.141 48.572C122.155 58.683 115.326 65.0508 105.176 64.3904C100.425 64.0813 97.446 62.886 94.768 60.2152C88.3156 53.7791 89.2986 40.3391 96.5778 35.4783C100.399 32.9268 105.171 32.0858 110.094 33.0957ZM240.508 33.3636C248.421 35.7258 252.618 43.4414 250.893 52.4575C249.23 61.1507 241.241 65.9284 231.468 64.0744C225.576 62.9568 221.629 59.2473 220.126 53.4154C219.512 51.0324 219.506 46.1257 220.114 43.8048C221.669 37.8715 225.85 34.0505 231.996 32.9459C234.001 32.5859 238.67 32.815 240.508 33.3636Z" fill="#252525"/>
<path d="M69.3298 77.6322V61.0264C53.9547 66.4044 46.2822 70.125 33.7656 77.6322H69.3298Z" fill="#FCCC06"/>
<rect x="365.328" y="25" width="195.672" height="53.0449" rx="11.0052" fill="#FCC705"/>
<path d="M402.483 52.995C402.483 50.9322 402.276 49.2757 401.864 48.0255C401.464 46.7753 400.92 45.8251 400.232 45.175C399.557 44.525 398.801 44.0874 397.963 43.8624C397.138 43.6373 396.294 43.5248 395.431 43.5248H393.05V62.7652H395.45C396.35 62.7652 397.219 62.6214 398.057 62.3339C398.895 62.0463 399.645 61.5462 400.307 60.8336C400.982 60.121 401.514 59.1334 401.901 57.8707C402.289 56.5955 402.483 54.9703 402.483 52.995ZM407.058 52.995C407.058 55.1328 406.827 56.9581 406.364 58.4708C405.914 59.9835 405.289 61.24 404.489 62.2401C403.701 63.2277 402.789 64.0029 401.751 64.5654C400.726 65.1155 399.638 65.5031 398.488 65.7281C397.338 65.9532 396.188 66.0657 395.038 66.0657H388.699V40.1868H394.606C396.182 40.1868 397.707 40.3556 399.182 40.6931C400.67 41.0307 402.001 41.6558 403.176 42.5684C404.364 43.481 405.308 44.775 406.008 46.4502C406.708 48.1255 407.058 50.3071 407.058 52.995ZM415.332 57.5144C415.42 58.8646 415.707 59.971 416.195 60.8336C416.683 61.6838 417.32 62.3089 418.108 62.7089C418.908 63.109 419.783 63.309 420.733 63.309C421.708 63.309 422.608 63.159 423.434 62.8589C424.259 62.5589 425.09 62.1338 425.928 61.5838L427.747 64.0966C426.822 64.8467 425.74 65.4468 424.502 65.8969C423.265 66.347 421.94 66.572 420.527 66.572C418.477 66.572 416.739 66.1344 415.314 65.2593C413.901 64.3842 412.826 63.1652 412.088 61.6025C411.35 60.0398 410.982 58.2333 410.982 56.1829C410.982 54.1951 411.344 52.4199 412.069 50.8571C412.794 49.2819 413.832 48.038 415.182 47.1253C416.532 46.2002 418.145 45.7376 420.021 45.7376C421.783 45.7376 423.296 46.1377 424.559 46.9378C425.834 47.7379 426.815 48.8756 427.503 50.3508C428.203 51.8135 428.553 53.5763 428.553 55.6391C428.553 55.9767 428.541 56.3142 428.516 56.6518C428.503 56.9768 428.484 57.2644 428.459 57.5144H415.332ZM420.058 48.8506C418.745 48.8506 417.658 49.3194 416.795 50.2571C415.945 51.1947 415.451 52.6574 415.314 54.6452H424.484C424.446 52.7824 424.046 51.351 423.284 50.3508C422.533 49.3507 421.458 48.8506 420.058 48.8506ZM451.679 46.2627L444.703 66.0657H439.79L432.814 46.2627H437.315L442.34 62.5777L447.385 46.2627H451.679ZM460.666 62.4651H473.756L473.268 66.0657H455.697V62.6902L468.861 43.7123H457.047V40.1868H473.662V43.5998L460.666 62.4651ZM487.243 45.7376C489.181 45.7376 490.812 46.1689 492.137 47.0316C493.463 47.8942 494.463 49.1006 495.138 50.6509C495.825 52.2011 496.169 54.0264 496.169 56.1267C496.169 58.2145 495.819 60.046 495.119 61.6213C494.431 63.184 493.419 64.4029 492.081 65.2781C490.756 66.1407 489.137 66.572 487.224 66.572C485.311 66.572 483.686 66.1532 482.348 65.3156C481.023 64.4654 480.011 63.259 479.31 61.6963C478.623 60.1335 478.279 58.2895 478.279 56.1642C478.279 54.1014 478.623 52.2886 479.31 50.7259C480.011 49.1631 481.029 47.9442 482.367 47.0691C483.705 46.1814 485.33 45.7376 487.243 45.7376ZM487.243 49.0006C485.73 49.0006 484.592 49.582 483.83 50.7446C483.067 51.8948 482.686 53.7013 482.686 56.1642C482.686 58.6146 483.061 60.4211 483.811 61.5838C484.574 62.7464 485.711 63.3278 487.224 63.3278C488.737 63.3278 489.868 62.7464 490.618 61.5838C491.381 60.4211 491.762 58.6021 491.762 56.1267C491.762 53.6888 491.387 51.8948 490.637 50.7446C489.887 49.582 488.756 49.0006 487.243 49.0006ZM501.799 66.0657V46.2627H505.418L505.737 48.8318C506.562 47.8192 507.538 47.0503 508.663 46.5252C509.788 46.0002 510.944 45.7376 512.132 45.7376C513.982 45.7376 515.364 46.2565 516.276 47.2941C517.201 48.3193 517.664 49.7632 517.664 51.626V66.0657H513.463V53.7076C513.463 52.5574 513.395 51.6323 513.257 50.9322C513.12 50.2321 512.845 49.7257 512.432 49.4132C512.032 49.1006 511.432 48.9444 510.632 48.9444C509.994 48.9444 509.388 49.0819 508.813 49.3569C508.238 49.632 507.713 49.9945 507.237 50.4446C506.762 50.8822 506.35 51.351 506 51.851V66.0657H501.799ZM527.776 57.5144C527.863 58.8646 528.151 59.971 528.639 60.8336C529.126 61.6838 529.764 62.3089 530.551 62.7089C531.351 63.109 532.227 63.309 533.177 63.309C534.152 63.309 535.052 63.159 535.877 62.8589C536.702 62.5589 537.534 62.1338 538.371 61.5838L540.19 64.0966C539.265 64.8467 538.184 65.4468 536.946 65.8969C535.708 66.347 534.383 66.572 532.97 66.572C530.92 66.572 529.182 66.1344 527.757 65.2593C526.344 64.3842 525.269 63.1652 524.532 61.6025C523.794 60.0398 523.425 58.2333 523.425 56.1829C523.425 54.1951 523.788 52.4199 524.513 50.8571C525.238 49.2819 526.276 48.038 527.626 47.1253C528.976 46.2002 530.589 45.7376 532.464 45.7376C534.227 45.7376 535.74 46.1377 537.002 46.9378C538.277 47.7379 539.259 48.8756 539.946 50.3508C540.647 51.8135 540.997 53.5763 540.997 55.6391C540.997 55.9767 540.984 56.3142 540.959 56.6518C540.947 56.9768 540.928 57.2644 540.903 57.5144H527.776ZM532.502 48.8506C531.189 48.8506 530.101 49.3194 529.239 50.2571C528.388 51.1947 527.895 52.6574 527.757 54.6452H536.927C536.89 52.7824 536.49 51.351 535.727 50.3508C534.977 49.3507 533.902 48.8506 532.502 48.8506Z" fill="#252525"/>
</svg>
